<svg xmlns="http://www.w3.org/2000/svg" viewBox="0 0 128 128">
    <defs>
        <linearGradient id="announceGrad" x1="0%" y1="0%" x2="100%" y2="100%">
            <stop offset="0%" stop-color="#22c55e" stop-opacity="1"/>
            <stop offset="100%" stop-color="#16a34a" stop-opacity="0.9"/>
        </linearGradient>
    </defs>
    
    <!-- Sound waves - made thicker and more visible -->
    <path d="M 20 60 Q 25 50, 30 60 Q 35 50, 40 60 Q 45 50, 50 60" 
          fill="none" stroke="#22c55e" stroke-width="4" stroke-linecap="round" opacity="0.8"/>
    <path d="M 20 68 Q 25 58, 30 68 Q 35 58, 40 68 Q 45 58, 50 68" 
          fill="none" stroke="#22c55e" stroke-width="4" stroke-linecap="round" opacity="0.7"/>
    
    <!-- Main speaker body - increased opacity -->
    <ellipse cx="70" cy="64" rx="22" ry="28" fill="url(#announceGrad)" opacity="0.9"/>
    <ellipse cx="70" cy="64" rx="14" ry="18" fill="#16a34a" opacity="0.7"/>
    
    <!-- Speaker cone/horn - larger and more visible -->
    <path d="M 92 52 L 108 42 L 108 86 L 92 76 Z" fill="url(#announceGrad)" opacity="0.9"/>
    <path d="M 97 54 L 103 49 L 103 79 L 97 74 Z" fill="#16a34a" opacity="0.6"/>
    
    <!-- Broadcast lines - thicker -->
    <path d="M 108 42 Q 120 36, 128 42 Q 128 52, 125 55" 
          fill="none" stroke="#22c55e" stroke-width="3.5" stroke-linecap="round" opacity="0.7"/>
    <path d="M 108 86 Q 120 92, 128 86 Q 128 76, 125 73" 
          fill="none" stroke="#22c55e" stroke-width="3.5" stroke-linecap="round" opacity="0.7"/>
    
    <!-- Additional sound waves on the right -->
    <path d="M 115 48 Q 118 45, 120 48" 
          fill="none" stroke="#22c55e" stroke-width="3" stroke-linecap="round" opacity="0.6"/>
    <path d="M 115 80 Q 118 83, 120 80" 
          fill="none" stroke="#22c55e" stroke-width="3" stroke-linecap="round" opacity="0.6"/>
    
    <!-- Small decorative circles - more visible -->
    <circle cx="75" cy="58" r="3" fill="#22c55e" opacity="0.8"/>
    <circle cx="75" cy="70" r="3" fill="#22c55e" opacity="0.8"/>
</svg>
