<svg xmlns="http://www.w3.org/2000/svg" viewBox="0 0 128 128">
    <defs>
        <linearGradient id="cloudGrad" x1="0%" y1="0%" x2="100%" y2="100%">
            <stop offset="0%" stop-color="#87CEEB" stop-opacity="0.9"/>
            <stop offset="100%" stop-color="#B0E0E6" stop-opacity="0.7"/>
        </linearGradient>
        <linearGradient id="cloudGrad2" x1="0%" y1="0%" x2="100%" y2="100%">
            <stop offset="0%" stop-color="#AFEEEE" stop-opacity="0.8"/>
            <stop offset="100%" stop-color="#E0F7FA" stop-opacity="0.6"/>
        </linearGradient>
    </defs>
    
    <!-- Large cloud on the left -->
    <ellipse cx="30" cy="45" rx="18" ry="12" fill="url(#cloudGrad)" opacity="0.8"/>
    <ellipse cx="38" cy="50" rx="16" ry="10" fill="url(#cloudGrad)" opacity="0.7"/>
    <ellipse cx="22" cy="50" rx="14" ry="9" fill="url(#cloudGrad)" opacity="0.75"/>
    
    <!-- Medium cloud in the middle -->
    <ellipse cx="70" cy="55" rx="20" ry="13" fill="url(#cloudGrad2)" opacity="0.75"/>
    <ellipse cx="78" cy="60" rx="18" ry="11" fill="url(#cloudGrad2)" opacity="0.7"/>
    <ellipse cx="62" cy="60" rx="16" ry="10" fill="url(#cloudGrad2)" opacity="0.7"/>
    <ellipse cx="70" cy="63" rx="12" ry="8" fill="url(#cloudGrad2)" opacity="0.65"/>
    
    <!-- Small cloud on the right -->
    <ellipse cx="100" cy="40" rx="12" ry="8" fill="url(#cloudGrad)" opacity="0.7"/>
    <ellipse cx="106" cy="44" rx="10" ry="7" fill="url(#cloudGrad)" opacity="0.65"/>
    <ellipse cx="94" cy="44" rx="9" ry="6" fill="url(#cloudGrad)" opacity="0.65"/>
    
    <!-- Floating cloud at the bottom -->
    <ellipse cx="50" cy="80" rx="14" ry="9" fill="url(#cloudGrad2)" opacity="0.6"/>
    <ellipse cx="58" cy="84" rx="12" ry="8" fill="url(#cloudGrad2)" opacity="0.55"/>
    <ellipse cx="42" cy="84" rx="11" ry="7" fill="url(#cloudGrad2)" opacity="0.55"/>
</svg>

