<svg xmlns="http://www.w3.org/2000/svg" width="24" height="24" viewBox="0 0 24 24">
  <path d="M17.72 7.22c.67 0 1.62-.42 2.15-.94.49-.47.91-1.17.91-1.88 0-.1-.01-.19-.03-.28-.87.04-1.9.58-2.53 1.3-.48.47-.93 1.16-.93 1.87 0 .11.02.22.03.27.06.01.16.02.25.02h.15zm-1.51 1.26c-.7 0-1.27.38-1.66.38-.42 0-.94-.36-1.64-.36-1.24 0-2.49.96-2.49 2.8 0 1.17.43 2.4 1.17 3.19.64.69 1.21 1.23 2.1 1.23.8 0 1.14-.49 1.91-.49.74 0 1.17.49 1.95.49.82 0 1.43-.6 1.95-1.17.33-.38.61-.9.81-1.45-2.1-.81-2.46-3.86-.47-4.95-.79-1.01-1.94-1.12-2.63-1.12z" fill="#000"/>
</svg>