<?xml version="1.0" encoding="UTF-8"?>
<svg version="1.1" xmlns="http://www.w3.org/2000/svg" width="512" height="512">
<path d="M0 0 C1.38095651 0.39440073 1.38095651 0.39440073 2.78981113 0.79676914 C5.85933162 1.6761001 8.92428431 2.57039548 11.98950195 3.46459961 C14.19289851 4.09881532 16.39658039 4.73204049 18.6005249 5.36434937 C23.33505499 6.72478403 28.06764292 8.09170986 32.79879761 9.46383667 C40.26652475 11.6296115 47.73805355 13.7820362 55.21044922 15.93164062 C57.76519039 16.66670536 60.31992527 17.40179192 62.87464905 18.13691711 C63.51253457 18.3204535 64.1504201 18.5039899 64.80763549 18.693088 C69.38816721 20.01120484 73.96809496 21.33140743 78.5478363 22.65226746 C96.43480826 27.80996946 114.3346025 32.92108609 132.24472785 37.9977839 C135.4375838 38.90285934 138.6303122 39.80838461 141.82307434 40.71379089 C151.63663698 43.4961582 161.4505818 46.27716878 171.26571655 49.0539856 C176.96751235 50.66723783 182.66842804 52.28356471 188.36872101 53.90211868 C190.46475148 54.49660004 192.56112653 55.0898679 194.6578598 55.68186569 C197.50550825 56.48594228 200.35200316 57.29397848 203.19824219 58.10302734 C204.45813477 58.45713983 204.45813477 58.45713983 205.74347973 58.81840611 C211.42624433 60.44040449 211.42624433 60.44040449 212.5402832 61.55444336 C212.63816279 63.03355309 212.66660102 64.51731969 212.66726685 65.99966431 C212.67008667 66.96067047 212.67290649 67.92167664 212.67581177 68.9118042 C212.67277542 70.50729095 212.67277542 70.50729095 212.66967773 72.13500977 C212.67230621 73.8061937 212.67230621 73.8061937 212.67498779 75.51113892 C212.67941736 79.22611006 212.67646012 82.94103415 212.6730957 86.65600586 C212.67376947 89.24506642 212.67474011 91.83412691 212.67599487 94.42318726 C212.67747417 99.87596286 212.67540926 105.32872082 212.6706543 110.78149414 C212.66527109 117.02550192 212.66692926 123.26947674 212.6724807 129.51348364 C212.67763627 135.56023622 212.67699856 141.6069746 212.67409897 147.65372849 C212.67343946 150.20251851 212.67422332 152.7513094 212.67657852 155.30009842 C212.6910534 175.40936528 212.63819548 195.61135315 210.3527832 215.61694336 C210.22677734 216.72215332 210.10077148 217.82736328 209.97094727 218.96606445 C201.79846955 285.81393994 174.63465669 353.54826672 130.1105957 404.58178711 C127.7344598 407.32987134 125.47750322 410.14036098 123.2277832 412.99194336 C117.98134251 419.45275007 112.05169969 425.21041675 106.10742188 431.01977539 C103.3094065 433.75981662 100.54329411 436.53114684 97.80200195 439.32788086 C69.15274089 468.47477177 31.64084167 491.11541138 -5.4597168 507.55444336 C-6.76682617 508.16545898 -6.76682617 508.16545898 -8.1003418 508.78881836 C-15.28688876 511.12087665 -20.68676711 508.03970231 -27.1472168 504.99194336 C-28.71705322 504.25862793 -28.71705322 504.25862793 -30.31860352 503.51049805 C-61.96847651 488.46498824 -91.7657018 469.48467625 -117.4597168 445.55444336 C-122.62193066 440.94187931 -122.62193066 440.94187931 -128.0222168 436.61694336 C-130.80612284 434.26133056 -133.02092775 431.65378268 -135.3815918 428.88256836 C-137.76078926 426.21715166 -140.28007726 423.73949598 -142.8347168 421.24194336 C-148.15056576 416.00381677 -152.84689432 410.4146107 -157.4597168 404.55444336 C-158.30753146 403.50794287 -159.15653256 402.46240268 -160.0065918 401.41772461 C-202.65438255 348.62052359 -229.35913079 283.51103067 -237.1472168 216.17944336 C-237.32643677 214.65903442 -237.32643677 214.65903442 -237.50927734 213.10791016 C-239.70592414 192.65412222 -239.60132649 172.03961545 -239.55737305 151.49584961 C-239.55550223 148.88313321 -239.55408147 146.27041646 -239.55308533 143.65769958 C-239.55001656 137.5527439 -239.54186539 131.44780682 -239.53173584 125.34285921 C-239.52043359 118.37510915 -239.51502925 111.40735805 -239.5100404 104.43960106 C-239.49967729 90.14453864 -239.48216729 75.84949167 -239.4597168 61.55444336 C-234.01604048 59.44535161 -228.58441741 57.63567448 -222.96557617 56.05957031 C-222.14717695 55.8270371 -221.32877773 55.59450388 -220.48557854 55.3549242 C-217.759085 54.58105908 -215.03127159 53.81195366 -212.3034668 53.04272461 C-210.33296545 52.48420534 -208.36255989 51.92534805 -206.39224243 51.36618042 C-201.03483798 49.84660969 -195.67632491 48.33098545 -190.31754303 46.81628036 C-181.16980356 44.22999775 -172.02356279 41.63841712 -162.87750626 39.04619026 C-160.47653215 38.36569551 -158.07551802 37.68534195 -155.67446518 37.00512505 C-138.41989731 32.11583544 -121.17845688 27.18267241 -103.9470408 22.21256262 C-99.40062594 20.9012588 -94.8537151 19.59168829 -90.30645752 18.28330994 C-89.35319238 18.00900549 -89.35319238 18.00900549 -88.38066936 17.72915953 C-85.20119542 16.81427886 -82.02168508 15.89952491 -78.84214401 14.98487759 C-72.59852435 13.18805906 -66.35615319 11.38709645 -60.11621094 9.57754517 C-54.22886264 7.87024736 -48.33879285 6.17268607 -42.44657516 4.4822731 C-40.27730677 3.85792201 -38.10910449 3.22985303 -35.94206619 2.59780502 C-32.97426637 1.73266265 -30.00298577 0.88067828 -27.03051758 0.03173828 C-25.74277058 -0.34885254 -25.74277058 -0.34885254 -24.42900848 -0.73713207 C-15.50710641 -3.25374282 -8.82539466 -2.60945073 0 0 Z " fill="#0095FE" transform="translate(269.459716796875,2.445556640625)"/>
<path d="M0 0 C1.38095651 0.39440073 1.38095651 0.39440073 2.78981113 0.79676914 C5.85933162 1.6761001 8.92428431 2.57039548 11.98950195 3.46459961 C14.19289851 4.09881532 16.39658039 4.73204049 18.6005249 5.36434937 C23.33505499 6.72478403 28.06764292 8.09170986 32.79879761 9.46383667 C40.26652475 11.6296115 47.73805355 13.7820362 55.21044922 15.93164062 C57.76519039 16.66670536 60.31992527 17.40179192 62.87464905 18.13691711 C63.51253457 18.3204535 64.1504201 18.5039899 64.80763549 18.693088 C69.38816721 20.01120484 73.96809496 21.33140743 78.5478363 22.65226746 C96.43480826 27.80996946 114.3346025 32.92108609 132.24472785 37.9977839 C135.4375838 38.90285934 138.6303122 39.80838461 141.82307434 40.71379089 C151.63663698 43.4961582 161.4505818 46.27716878 171.26571655 49.0539856 C176.96751235 50.66723783 182.66842804 52.28356471 188.36872101 53.90211868 C190.46475148 54.49660004 192.56112653 55.0898679 194.6578598 55.68186569 C197.50550825 56.48594228 200.35200316 57.29397848 203.19824219 58.10302734 C204.45813477 58.45713983 204.45813477 58.45713983 205.74347973 58.81840611 C211.42624433 60.44040449 211.42624433 60.44040449 212.5402832 61.55444336 C212.63816279 63.03355309 212.66660102 64.51731969 212.66726685 65.99966431 C212.67008667 66.96067047 212.67290649 67.92167664 212.67581177 68.9118042 C212.67277542 70.50729095 212.67277542 70.50729095 212.66967773 72.13500977 C212.67230621 73.8061937 212.67230621 73.8061937 212.67498779 75.51113892 C212.67941736 79.22611006 212.67646012 82.94103415 212.6730957 86.65600586 C212.67376947 89.24506642 212.67474011 91.83412691 212.67599487 94.42318726 C212.67747417 99.87596286 212.67540926 105.32872082 212.6706543 110.78149414 C212.66527109 117.02550192 212.66692926 123.26947674 212.6724807 129.51348364 C212.67763627 135.56023622 212.67699856 141.6069746 212.67409897 147.65372849 C212.67343946 150.20251851 212.67422332 152.7513094 212.67657852 155.30009842 C212.6910534 175.40936528 212.63819548 195.61135315 210.3527832 215.61694336 C210.22677734 216.72215332 210.10077148 217.82736328 209.97094727 218.96606445 C201.79846955 285.81393994 174.63465669 353.54826672 130.1105957 404.58178711 C127.7344598 407.32987134 125.47750322 410.14036098 123.2277832 412.99194336 C117.98134251 419.45275007 112.05169969 425.21041675 106.10742188 431.01977539 C103.3094065 433.75981662 100.54329411 436.53114684 97.80200195 439.32788086 C69.15274089 468.47477177 31.64084167 491.11541138 -5.4597168 507.55444336 C-6.76682617 508.16545898 -6.76682617 508.16545898 -8.1003418 508.78881836 C-15.28688876 511.12087665 -20.68676711 508.03970231 -27.1472168 504.99194336 C-28.71705322 504.25862793 -28.71705322 504.25862793 -30.31860352 503.51049805 C-61.96847651 488.46498824 -91.7657018 469.48467625 -117.4597168 445.55444336 C-122.62193066 440.94187931 -122.62193066 440.94187931 -128.0222168 436.61694336 C-130.80612284 434.26133056 -133.02092775 431.65378268 -135.3815918 428.88256836 C-137.76078926 426.21715166 -140.28007726 423.73949598 -142.8347168 421.24194336 C-148.15056576 416.00381677 -152.84689432 410.4146107 -157.4597168 404.55444336 C-158.30753146 403.50794287 -159.15653256 402.46240268 -160.0065918 401.41772461 C-202.65438255 348.62052359 -229.35913079 283.51103067 -237.1472168 216.17944336 C-237.32643677 214.65903442 -237.32643677 214.65903442 -237.50927734 213.10791016 C-239.70592414 192.65412222 -239.60132649 172.03961545 -239.55737305 151.49584961 C-239.55550223 148.88313321 -239.55408147 146.27041646 -239.55308533 143.65769958 C-239.55001656 137.5527439 -239.54186539 131.44780682 -239.53173584 125.34285921 C-239.52043359 118.37510915 -239.51502925 111.40735805 -239.5100404 104.43960106 C-239.49967729 90.14453864 -239.48216729 75.84949167 -239.4597168 61.55444336 C-234.01604048 59.44535161 -228.58441741 57.63567448 -222.96557617 56.05957031 C-222.14717695 55.8270371 -221.32877773 55.59450388 -220.48557854 55.3549242 C-217.759085 54.58105908 -215.03127159 53.81195366 -212.3034668 53.04272461 C-210.33296545 52.48420534 -208.36255989 51.92534805 -206.39224243 51.36618042 C-201.03483798 49.84660969 -195.67632491 48.33098545 -190.31754303 46.81628036 C-181.16980356 44.22999775 -172.02356279 41.63841712 -162.87750626 39.04619026 C-160.47653215 38.36569551 -158.07551802 37.68534195 -155.67446518 37.00512505 C-138.41989731 32.11583544 -121.17845688 27.18267241 -103.9470408 22.21256262 C-99.40062594 20.9012588 -94.8537151 19.59168829 -90.30645752 18.28330994 C-89.35319238 18.00900549 -89.35319238 18.00900549 -88.38066936 17.72915953 C-85.20119542 16.81427886 -82.02168508 15.89952491 -78.84214401 14.98487759 C-72.59852435 13.18805906 -66.35615319 11.38709645 -60.11621094 9.57754517 C-54.22886264 7.87024736 -48.33879285 6.17268607 -42.44657516 4.4822731 C-40.27730677 3.85792201 -38.10910449 3.22985303 -35.94206619 2.59780502 C-32.97426637 1.73266265 -30.00298577 0.88067828 -27.03051758 0.03173828 C-25.74277058 -0.34885254 -25.74277058 -0.34885254 -24.42900848 -0.73713207 C-15.50710641 -3.25374282 -8.82539466 -2.60945073 0 0 Z M-23.03393555 61.93334961 C-24.33479851 62.30450897 -24.33479851 62.30450897 -25.66194153 62.6831665 C-28.49119646 63.49155658 -31.31923789 64.30410166 -34.1472168 65.11694336 C-36.08991799 65.673202 -38.03262634 66.22943569 -39.9753418 66.78564453 C-50.5434631 69.81757011 -61.08332783 72.92128318 -71.58349609 76.18164062 C-79.59014172 78.64562951 -87.67449178 80.78865823 -95.7722168 82.93066406 C-102.88465078 84.82466713 -109.93109122 86.87098197 -116.9597168 89.05444336 C-126.00925205 91.86375773 -135.10810209 94.41176415 -144.27612305 96.80639648 C-155.73669655 99.82273476 -167.09130179 103.21064362 -178.4597168 106.55444336 C-178.50639204 117.96082468 -178.54176259 129.36718267 -178.56334114 140.77364063 C-178.57370622 146.07211024 -178.58772967 151.37051374 -178.6105957 156.66894531 C-178.63258714 161.79776837 -178.64433986 166.9265285 -178.64947128 172.05539513 C-178.65312048 173.99625321 -178.66024366 175.9371085 -178.67117691 177.87793922 C-178.76324351 194.92461458 -177.63503874 211.53462755 -174.0847168 228.24194336 C-173.86557617 229.30082764 -173.64643555 230.35971191 -173.4206543 231.45068359 C-161.46167357 288.50353895 -135.56039845 343.66430993 -93.3425293 384.67163086 C-91.73415543 386.28000473 -90.30538057 387.89825607 -88.8972168 389.67944336 C-85.73798784 393.40571342 -82.17804311 396.39914438 -78.4597168 399.55444336 C-77.42464614 400.46191186 -76.39088571 401.37087611 -75.3581543 402.28100586 C-67.06872038 409.5485856 -58.48254584 416.22337784 -49.4597168 422.55444336 C-48.86610352 422.97435547 -48.27249023 423.39426758 -47.66088867 423.8269043 C-39.97157813 429.23305512 -32.01366948 434.11103295 -23.8347168 438.74194336 C-22.98111572 439.23629883 -22.12751465 439.7306543 -21.24804688 440.23999023 C-20.03411255 440.91191406 -20.03411255 440.91191406 -18.7956543 441.59741211 C-18.07941895 441.99984131 -17.36318359 442.40227051 -16.62524414 442.81689453 C-13.01795947 444.04548608 -10.46313201 443.04139949 -7.12646484 441.42211914 C-6.33280518 440.95273926 -5.53914551 440.48335938 -4.72143555 439.99975586 C-3.8269873 439.47317383 -2.93253906 438.9465918 -2.01098633 438.40405273 C-1.06594238 437.83493164 -0.12089844 437.26581055 0.8527832 436.67944336 C1.8339209 436.09227539 2.81505859 435.50510742 3.82592773 434.90014648 C18.30207125 426.15822858 31.61362873 416.44960089 44.5402832 405.55444336 C45.30727539 404.90862305 46.07426758 404.26280273 46.86450195 403.59741211 C48.78335652 401.94405943 50.66477668 400.2568262 52.5402832 398.55444336 C53.4993457 397.69850586 54.4584082 396.84256836 55.4465332 395.96069336 C77.36505768 376.22372783 95.61450401 352.96561161 110.5402832 327.55444336 C111.20108887 326.43030029 111.20108887 326.43030029 111.87524414 325.28344727 C135.66379847 284.38367944 151.86656415 234.83080636 151.65380859 187.1574707 C151.65402763 185.83854828 151.65402763 185.83854828 151.6542511 184.49298096 C151.65356189 181.6254213 151.64581663 178.75792898 151.63793945 175.89038086 C151.63607174 173.88685135 151.63464951 171.88332139 151.63365173 169.87979126 C151.62985438 164.63558669 151.62004816 159.39141031 151.60894775 154.1472168 C151.59867351 148.78426495 151.59414129 143.42130849 151.58911133 138.05834961 C151.57842312 127.55703522 151.56138052 117.05574164 151.5402832 106.55444336 C130.19280082 100.42319376 108.84445619 94.29495508 87.49507332 88.17032623 C77.58280959 85.32665769 67.6708333 82.4819945 57.75952148 79.63500977 C49.12353588 77.1543601 40.48702306 74.67555615 31.84986484 72.19899225 C27.27414207 70.8869081 22.69869358 69.57388423 18.12387466 68.25865173 C13.82201325 67.02192435 9.51945377 65.78765735 5.2163353 64.5553112 C3.63337713 64.10150027 2.05068087 63.64677465 0.46826172 63.19108772 C-1.68484759 62.57120496 -3.83885725 61.95455784 -5.99313354 61.33874512 C-7.20068235 60.99215096 -8.40823116 60.64555679 -9.65237236 60.28845978 C-14.51006516 59.01835333 -18.32920025 60.58018628 -23.03393555 61.93334961 Z " fill="#E6E6E7" transform="translate(269.459716796875,2.445556640625)"/>
<path d="M0 0 C-0.33 126.39 -0.66 252.78 -1 383 C-19.93003145 373.53498428 -19.93003145 373.53498428 -27.3671875 368.4765625 C-27.95081055 368.07985352 -28.53443359 367.68314453 -29.13574219 367.27441406 C-29.75094727 366.85385742 -30.36615234 366.43330078 -31 366 C-31.67708008 365.54077148 -32.35416016 365.08154297 -33.05175781 364.60839844 C-42.86113393 357.92729716 -52.09725585 350.84437596 -61 343 C-62.11955078 342.02933594 -62.11955078 342.02933594 -63.26171875 341.0390625 C-64.54783129 339.92224179 -65.8294151 338.80017507 -67.10546875 337.671875 C-68.47428672 336.46392842 -69.85321038 335.26740052 -71.23828125 334.078125 C-75.62896048 330.2704099 -79.57789267 326.36022335 -83.328125 321.921875 C-84.93441634 320.07539056 -86.61317614 318.38466977 -88.375 316.6875 C-116.98933942 288.32582582 -136.68232196 249.46195765 -150 212 C-150.58907169 210.40466262 -151.17884848 208.80958532 -151.76953125 207.21484375 C-155.8344717 195.95674233 -158.21195363 184.42854764 -160.47265625 172.69238281 C-160.92374142 170.38934241 -161.40223757 168.09658187 -161.90625 165.8046875 C-165.58640575 148.76556636 -166.29319221 131.83227531 -166.1953125 114.45703125 C-166.19156966 112.46636601 -166.18872872 110.47569889 -166.18673706 108.48503113 C-166.1792005 103.31489731 -166.15964126 98.14488081 -166.1373291 92.97479248 C-166.11665216 87.67136216 -166.10768925 82.36791237 -166.09765625 77.06445312 C-166.07638308 66.70958465 -166.04237215 56.35480218 -166 46 C-141.11902275 38.68174102 -141.11902275 38.68174102 -128.9375 35.5 C-119.7847028 33.07428872 -110.72510738 30.43384631 -101.68334961 27.625 C-94.49834897 25.41099929 -87.26796219 23.42251742 -80 21.5 C-72.11816918 19.41156805 -64.2873313 17.22978271 -56.5 14.8125 C-45.90188948 11.53378597 -35.25860927 8.41543376 -24.59960938 5.34140015 C-22.66085681 4.78123345 -20.72286283 4.21843445 -18.78564453 3.65298462 C-16.05049648 2.85530158 -13.31279174 2.06708175 -10.57421875 1.28125 C-9.73884079 1.03581955 -8.90346283 0.7903891 -8.04277039 0.53752136 C-2.2284757 -1.11423785 -2.2284757 -1.11423785 0 0 Z " fill="#00ABE8" transform="translate(257,63)"/>
<path d="M0 0 C5.54355755 0.65355735 10.71340344 1.92043284 16.07080078 3.46728516 C16.96204021 3.72061426 17.85327965 3.97394337 18.77152634 4.23494911 C21.74737533 5.08198957 24.72131332 5.93555201 27.6953125 6.7890625 C29.83290027 7.39882998 31.97060888 8.00817395 34.10842896 8.61712646 C39.90711088 10.27006072 45.70419237 11.92854398 51.50099182 13.5880661 C57.56455867 15.32302852 63.6294771 17.05325182 69.69433594 18.78369141 C77.28183601 20.94878573 84.86923858 23.1142178 92.45605469 25.28170776 C109.48970448 30.14757271 126.52902592 34.99313103 143.57261276 39.82406998 C147.40714805 40.910981 151.24150805 41.99850952 155.07583618 43.08615112 C156.32015348 43.43910814 157.56447079 43.79206516 158.84649467 44.15571785 C161.32692168 44.85931504 163.80734595 45.56292187 166.28776741 46.26653862 C172.37602309 47.9933818 178.46458599 49.7191279 184.55377197 51.44268799 C190.27333862 53.06171978 195.99202203 54.68383422 201.71004868 56.3082962 C203.81513138 56.90571453 205.92054755 57.50195918 208.02630997 58.09697723 C210.88852245 58.90587726 213.74956998 59.71877133 216.61035156 60.53271484 C217.45498522 60.77035868 218.29961887 61.00800251 219.16984749 61.25284767 C224.88591059 62.88591059 224.88591059 62.88591059 226 64 C226.09787959 65.47910973 226.12631781 66.96287633 226.12698364 68.44522095 C226.12980347 69.40622711 226.13262329 70.36723328 226.13552856 71.35736084 C226.13249222 72.9528476 226.13249222 72.9528476 226.12939453 74.58056641 C226.13202301 76.25175034 226.13202301 76.25175034 226.13470459 77.95669556 C226.13913416 81.6716667 226.13617691 85.38659079 226.1328125 89.1015625 C226.13348627 91.69062306 226.1344569 94.27968355 226.13571167 96.8687439 C226.13719097 102.32151951 226.13512606 107.77427746 226.13037109 113.22705078 C226.12498789 119.47105856 226.12664605 125.71503338 226.1321975 131.95904028 C226.13735306 138.00579286 226.13671536 144.05253124 226.13381577 150.09928513 C226.13315625 152.64807515 226.13394012 155.19686604 226.13629532 157.74565506 C226.15077019 177.85492192 226.09791228 198.05690979 223.8125 218.0625 C223.68649414 219.16770996 223.56048828 220.27291992 223.43066406 221.41162109 C215.25818635 288.25949658 188.09437349 355.99382336 143.5703125 407.02734375 C141.19417659 409.77542798 138.93722002 412.58591762 136.6875 415.4375 C131.44105931 421.89830671 125.51141649 427.65597339 119.56713867 433.46533203 C116.7691233 436.20537326 114.00301091 438.97670348 111.26171875 441.7734375 C82.41187584 471.1243943 41.75777405 498.33718757 3 512 C2.01 512 1.02 512 0 512 C0 490.22 0 468.44 0 446 C7.59 441.71 15.18 437.42 23 433 C35.29908523 424.95531532 46.81168118 416.49009186 58 407 C58.763125 406.35675781 59.52625 405.71351563 60.3125 405.05078125 C62.23615894 403.39563303 64.12109521 401.70580032 66 400 C66.97066406 399.13246094 67.94132812 398.26492188 68.94140625 397.37109375 C90.47979511 377.9558439 108.32827318 354.97864359 123 330 C123.44053711 329.25057129 123.88107422 328.50114258 124.33496094 327.72900391 C148.26421344 286.58733309 163.86339464 237.46391997 164.20532227 189.60302734 C164.21522186 188.72374573 164.22512146 187.84446411 164.23532104 186.9385376 C164.26656962 184.07103035 164.29154635 181.20350662 164.31640625 178.3359375 C164.33700754 176.33240359 164.35800478 174.32887371 164.37937927 172.3253479 C164.4342723 167.0811899 164.48382452 161.83699483 164.53222656 156.59277344 C164.5826826 151.22978461 164.63824219 145.86684884 164.69335938 140.50390625 C164.80053943 130.00264962 164.90207163 119.50134669 165 109 C164.45511964 108.90493447 163.91023928 108.80986895 163.34884739 108.71192265 C155.34174865 107.22009862 147.56371481 104.99537226 139.74389648 102.74975586 C138.22691577 102.31726197 136.70983843 101.88510685 135.19267273 101.45326233 C131.10136576 100.28759483 127.0114878 99.11698797 122.92191195 97.94526362 C118.63631175 96.71809363 114.34957178 95.49491677 110.06300354 94.27113342 C102.87607921 92.21862998 95.69008625 90.16289149 88.50463867 88.10522461 C80.1896372 85.72413699 71.87315509 83.34827827 63.55587715 80.97515577 C55.55022178 78.6908125 47.5456317 76.40275799 39.54152107 74.1130085 C36.13478174 73.13851161 32.72766812 72.16533929 29.32024956 71.19322014 C25.31796739 70.05121235 21.31662341 68.90597576 17.31599617 67.75818443 C15.84447287 67.33657199 14.37262386 66.91609454 12.9004364 66.4968071 C10.89920442 65.92664586 8.89916855 65.35247157 6.8993988 64.77720642 C5.77765983 64.45625472 4.65592085 64.13530302 3.50018978 63.80462551 C1 63 1 63 0 62 C-0.09396057 60.06693502 -0.11743517 58.13041162 -0.11352539 56.19506836 C-0.11344986 54.95385727 -0.11337433 53.71264618 -0.11329651 52.43382263 C-0.10818911 51.0691626 -0.1029731 49.70450298 -0.09765625 48.33984375 C-0.095792 46.95121817 -0.09436813 45.56259193 -0.09336853 44.17396545 C-0.08954387 40.51278885 -0.07971403 36.8516517 -0.06866455 33.19049072 C-0.05844932 29.45707737 -0.05387067 25.72365766 -0.04882812 21.99023438 C-0.03809171 14.66013823 -0.02101591 7.33007464 0 0 Z " fill="#D2D3D8" transform="translate(256,0)"/>
</svg>
